<svg xmlns="http://www.w3.org/2000/svg" viewBox="0 0 137.81 115"><defs><style>.cls-1,.cls-2{fill:#ebe6e6;}.cls-1,.cls-3{stroke:#ebe6e6;stroke-linecap:round;stroke-miterlimit:10;stroke-width:14px;}.cls-3{fill:none;}</style></defs><g id="Layer_2" data-name="Layer 2"><g id="Layer_1-2" data-name="Layer 1"><path class="cls-1" d="M34.64,58.48v43.85c0,3.13,2.92,5.67,6.52,5.67H55.42V93.09a7.83,7.83,0,0,1,7.84-7.82H76.85a7.83,7.83,0,0,1,7.84,7.82V108H97c3.6,0,6.52-2.54,6.52-5.67V58.48L73.71,35.12a6.48,6.48,0,0,0-8-.07Z"/><rect class="cls-2" x="92.18" width="18.87" height="30" rx="5.48"/><path class="cls-3" d="M130.81,52.77,77.18,10.82a11.64,11.64,0,0,0-14.42-.14L7,52.77"/></g></g></svg>