<svg xmlns="http://www.w3.org/2000/svg" viewBox="0 0 362 362"><defs><style>.cls-1{fill:#ebe6e6;}.cls-2{fill:#ff6e6e;}</style></defs><g id="Layer_2" data-name="Layer 2"><g id="Layer_1-2" data-name="Layer 1"><circle class="cls-1" cx="181" cy="181" r="181"/><path class="cls-2" d="M181,76.06c34.18,0,38.23.13,51.72.75,12.48.57,19.26,2.65,23.77,4.41a42.33,42.33,0,0,1,24.29,24.29c1.76,4.51,3.84,11.29,4.41,23.77.62,13.49.75,17.54.75,51.72s-.13,38.23-.75,51.72c-.57,12.48-2.65,19.26-4.41,23.77a42.33,42.33,0,0,1-24.29,24.29c-4.51,1.76-11.29,3.84-23.77,4.41-13.49.62-17.54.75-51.72.75s-38.23-.13-51.72-.75c-12.48-.57-19.26-2.65-23.77-4.41a42.33,42.33,0,0,1-24.29-24.29c-1.76-4.51-3.84-11.29-4.41-23.77-.62-13.49-.75-17.54-.75-51.72s.13-38.23.75-51.72c.57-12.48,2.65-19.26,4.41-23.77a42.33,42.33,0,0,1,24.29-24.29c4.51-1.76,11.29-3.84,23.77-4.41,13.49-.62,17.54-.75,51.72-.75M181,53c-34.76,0-39.12.15-52.77.77s-22.93,2.79-31.08,5.95A65.4,65.4,0,0,0,59.72,97.16c-3.16,8.14-5.33,17.44-5.95,31.07S53,146.24,53,181s.15,39.12.77,52.77,2.79,22.93,5.95,31.08a65.42,65.42,0,0,0,37.43,37.43c8.15,3.16,17.45,5.33,31.08,6s18,.77,52.77.77,39.12-.15,52.77-.77,22.93-2.79,31.07-6a65.4,65.4,0,0,0,37.44-37.43c3.16-8.15,5.33-17.45,6-31.08s.77-18,.77-52.77-.15-39.12-.77-52.77-2.79-22.93-6-31.07a65.38,65.38,0,0,0-37.44-37.44c-8.14-3.16-17.44-5.33-31.07-5.95S215.76,53,181,53Zm0,62.27A65.73,65.73,0,1,0,246.73,181,65.73,65.73,0,0,0,181,115.27Zm0,108.4A42.67,42.67,0,1,1,223.67,181,42.68,42.68,0,0,1,181,223.67Zm83.69-111a15.36,15.36,0,1,1-15.36-15.36A15.36,15.36,0,0,1,264.69,112.67Z"/></g></g></svg>